{
    "asset" : {
        "generator" : "Khronos Blender glTF 2.0 I/O",
        "version" : "2.0"
    },
    "scene" : 0,
    "scenes" : [
        {
            "name" : "Scene",
            "nodes" : [
                3
            ]
        }
    ],
    "nodes" : [
        {
            "mesh" : 0,
            "name" : "TankTracks",
            "translation" : [
                0,
                0.25,
                0
            ]
        },
        {
            "mesh" : 1,
            "name" : "TurretGun",
            "translation" : [
                0,
                0.25000011920928955,
                0.1666666716337204
            ]
        },
        {
            "children" : [
                1
            ],
            "mesh" : 2,
            "name" : "Turret",
            "translation" : [
                0,
                1,
                0
            ]
        },
        {
            "children" : [
                0,
                2
            ],
            "mesh" : 3,
            "name" : "TankBase"
        }
    ],
    "materials" : [
        {
            "name" : "TankTracksMaterial",
            "pbrMetallicRoughness" : {
                "baseColorFactor" : [
                    0.18781538307666779,
                    0.10230356454849243,
                    0.0073455628007650375,
                    1
                ],
                "metallicFactor" : 0,
                "roughnessFactor" : 1
            }
        },
        {
            "name" : "TurretMaterial",
            "pbrMetallicRoughness" : {
                "baseColorFactor" : [
                    0.0012930110096931458,
                    0.15319177508354187,
                    8.300147601403296e-05,
                    1
                ],
                "metallicFactor" : 0,
                "roughnessFactor" : 1
            }
        },
        {
            "name" : "TankTurretMaterial",
            "pbrMetallicRoughness" : {
                "baseColorFactor" : [
                    0.028850939124822617,
                    0.24762845039367676,
                    0,
                    1
                ],
                "metallicFactor" : 0,
                "roughnessFactor" : 1
            }
        },
        {
            "name" : "TankBaseMaterial",
            "pbrMetallicRoughness" : {
                "baseColorFactor" : [
                    0.007511979900300503,
                    0.1190645694732666,
                    0,
                    1
                ],
                "metallicFactor" : 0,
                "roughnessFactor" : 1
            }
        }
    ],
    "meshes" : [
        {
            "name" : "TankTracksData.001",
            "primitives" : [
                {
                    "attributes" : {
                        "POSITION" : 0,
                        "NORMAL" : 1
                    },
                    "indices" : 2,
                    "material" : 0
                }
            ]
        },
        {
            "name" : "TurretGunData.001",
            "primitives" : [
                {
                    "attributes" : {
                        "POSITION" : 3,
                        "NORMAL" : 4
                    },
                    "indices" : 5,
                    "material" : 1
                }
            ]
        },
        {
            "name" : "TankTurretData.001",
            "primitives" : [
                {
                    "attributes" : {
                        "POSITION" : 6,
                        "NORMAL" : 7
                    },
                    "indices" : 8,
                    "material" : 2
                }
            ]
        },
        {
            "name" : "TankBaseData.001",
            "primitives" : [
                {
                    "attributes" : {
                        "POSITION" : 9,
                        "NORMAL" : 10
                    },
                    "indices" : 11,
                    "material" : 3
                }
            ]
        }
    ],
    "accessors" : [
        {
            "bufferView" : 0,
            "componentType" : 5126,
            "count" : 48,
            "max" : [
                0.8478837609291077,
                0.3804263472557068,
                0.9845698475837708
            ],
            "min" : [
                -0.8478837609291077,
                -0.25,
                -0.9742331504821777
            ],
            "type" : "VEC3"
        },
        {
            "bufferView" : 1,
            "componentType" : 5126,
            "count" : 48,
            "type" : "VEC3"
        },
        {
            "bufferView" : 2,
            "componentType" : 5123,
            "count" : 72,
            "type" : "SCALAR"
        },
        {
            "bufferView" : 3,
            "componentType" : 5126,
            "count" : 192,
            "max" : [
                0.12000005692243576,
                0.12000000476837158,
                0.870266318321228
            ],
            "min" : [
                -0.11999993771314621,
                -0.12000000476837158,
                -0.03693366050720215
            ],
            "type" : "VEC3"
        },
        {
            "bufferView" : 4,
            "componentType" : 5126,
            "count" : 192,
            "type" : "VEC3"
        },
        {
            "bufferView" : 5,
            "componentType" : 5123,
            "count" : 372,
            "type" : "SCALAR"
        },
        {
            "bufferView" : 6,
            "componentType" : 5126,
            "count" : 36,
            "max" : [
                0.4999999403953552,
                0.5,
                0.333333283662796
            ],
            "min" : [
                -0.4999999403953552,
                0,
                -0.6666666269302368
            ],
            "type" : "VEC3"
        },
        {
            "bufferView" : 7,
            "componentType" : 5126,
            "count" : 36,
            "type" : "VEC3"
        },
        {
            "bufferView" : 8,
            "componentType" : 5123,
            "count" : 60,
            "type" : "SCALAR"
        },
        {
            "bufferView" : 9,
            "componentType" : 5126,
            "count" : 72,
            "max" : [
                0.8333333134651184,
                1,
                1
            ],
            "min" : [
                -0.8333333134651184,
                0.25,
                -1
            ],
            "type" : "VEC3"
        },
        {
            "bufferView" : 10,
            "componentType" : 5126,
            "count" : 72,
            "type" : "VEC3"
        },
        {
            "bufferView" : 11,
            "componentType" : 5123,
            "count" : 144,
            "type" : "SCALAR"
        }
    ],
    "bufferViews" : [
        {
            "buffer" : 0,
            "byteLength" : 576,
            "byteOffset" : 0
        },
        {
            "buffer" : 0,
            "byteLength" : 576,
            "byteOffset" : 576
        },
        {
            "buffer" : 0,
            "byteLength" : 144,
            "byteOffset" : 1152
        },
        {
            "buffer" : 0,
            "byteLength" : 2304,
            "byteOffset" : 1296
        },
        {
            "buffer" : 0,
            "byteLength" : 2304,
            "byteOffset" : 3600
        },
        {
            "buffer" : 0,
            "byteLength" : 744,
            "byteOffset" : 5904
        },
        {
            "buffer" : 0,
            "byteLength" : 432,
            "byteOffset" : 6648
        },
        {
            "buffer" : 0,
            "byteLength" : 432,
            "byteOffset" : 7080
        },
        {
            "buffer" : 0,
            "byteLength" : 120,
            "byteOffset" : 7512
        },
        {
            "buffer" : 0,
            "byteLength" : 864,
            "byteOffset" : 7632
        },
        {
            "buffer" : 0,
            "byteLength" : 864,
            "byteOffset" : 8496
        },
        {
            "buffer" : 0,
            "byteLength" : 288,
            "byteOffset" : 9360
        }
    ],
    "buffers" : [
        {
            "byteLength" : 9648,
            "uri" : "data:application/octet-stream;base64,"
        }
    ]
}
