{
    "asset" : {
        "generator" : "Khronos Blender glTF 2.0 I/O",
        "version" : "2.0"
    },
    "scene" : 0,
    "scenes" : [
        {
            "name" : "Scene",
            "nodes" : [
                4
            ]
        }
    ],
    "nodes" : [
        {
            "mesh" : 0,
            "name" : "TankTracks",
            "translation" : [
                0,
                0.25,
                0
            ]
        },
        {
            "mesh" : 1,
            "name" : "TurretGunMuzzle"
        },
        {
            "children" : [
                1
            ],
            "mesh" : 2,
            "name" : "TurretGun",
            "translation" : [
                0,
                0.25000011920928955,
                0.1666666716337204
            ]
        },
        {
            "children" : [
                2
            ],
            "mesh" : 3,
            "name" : "Turret",
            "translation" : [
                0,
                1,
                0
            ]
        },
        {
            "children" : [
                0,
                3
            ],
            "mesh" : 4,
            "name" : "TankBase"
        }
    ],
    "materials" : [
        {
            "name" : "TankOtherMaterial",
            "pbrMetallicRoughness" : {
                "baseColorTexture" : {
                    "index" : 0,
                    "texCoord" : 0
                },
                "metallicFactor" : 0,
                "roughnessFactor" : 0.5
            }
        },
        {
            "name" : "TankMaterial",
            "pbrMetallicRoughness" : {
                "baseColorTexture" : {
                    "index" : 1,
                    "texCoord" : 0
                },
                "metallicFactor" : 0,
                "roughnessFactor" : 0.5
            }
        }
    ],
    "meshes" : [
        {
            "name" : "TankTracksData.001",
            "primitives" : [
                {
                    "attributes" : {
                        "POSITION" : 0,
                        "NORMAL" : 1,
                        "TEXCOORD_0" : 2
                    },
                    "indices" : 3,
                    "material" : 0
                }
            ]
        },
        {
            "name" : "TurretGunData.002",
            "primitives" : [
                {
                    "attributes" : {
                        "POSITION" : 4,
                        "NORMAL" : 5,
                        "TEXCOORD_0" : 6
                    },
                    "indices" : 7,
                    "material" : 0
                }
            ]
        },
        {
            "name" : "TurretGunData.002",
            "primitives" : [
                {
                    "attributes" : {
                        "POSITION" : 8,
                        "NORMAL" : 9,
                        "TEXCOORD_0" : 10
                    },
                    "indices" : 11,
                    "material" : 1
                }
            ]
        },
        {
            "name" : "TankTurretData.001",
            "primitives" : [
                {
                    "attributes" : {
                        "POSITION" : 12,
                        "NORMAL" : 13,
                        "TEXCOORD_0" : 14
                    },
                    "indices" : 15,
                    "material" : 1
                }
            ]
        },
        {
            "name" : "TankBaseData.001",
            "primitives" : [
                {
                    "attributes" : {
                        "POSITION" : 16,
                        "NORMAL" : 17,
                        "TEXCOORD_0" : 18
                    },
                    "indices" : 19,
                    "material" : 1
                }
            ]
        }
    ],
    "textures" : [
        {
            "source" : 0
        },
        {
            "source" : 1
        }
    ],
    "images" : [
        {
            "mimeType" : "image/png",
            "name" : "tank_other_texture",
            "uri" : "tank_other_texture.png"
        },
        {
            "mimeType" : "image/png",
            "name" : "tank_texture",
            "uri" : "tank_texture.png"
        }
    ],
    "accessors" : [
        {
            "bufferView" : 0,
            "componentType" : 5126,
            "count" : 48,
            "max" : [
                0.8478837609291077,
                0.3804263472557068,
                0.9845698475837708
            ],
            "min" : [
                -0.8478837609291077,
                -0.25,
                -0.9742331504821777
            ],
            "type" : "VEC3"
        },
        {
            "bufferView" : 1,
            "componentType" : 5126,
            "count" : 48,
            "type" : "VEC3"
        },
        {
            "bufferView" : 2,
            "componentType" : 5126,
            "count" : 48,
            "type" : "VEC2"
        },
        {
            "bufferView" : 3,
            "componentType" : 5123,
            "count" : 72,
            "type" : "SCALAR"
        },
        {
            "bufferView" : 4,
            "componentType" : 5126,
            "count" : 374,
            "max" : [
                0.12000005692243576,
                0.12000000476837158,
                0.870266318321228
            ],
            "min" : [
                -0.11999993771314621,
                -0.12000000476837158,
                0.5611495971679688
            ],
            "type" : "VEC3"
        },
        {
            "bufferView" : 5,
            "componentType" : 5126,
            "count" : 374,
            "type" : "VEC3"
        },
        {
            "bufferView" : 6,
            "componentType" : 5126,
            "count" : 374,
            "type" : "VEC2"
        },
        {
            "bufferView" : 7,
            "componentType" : 5123,
            "count" : 666,
            "type" : "SCALAR"
        },
        {
            "bufferView" : 8,
            "componentType" : 5126,
            "count" : 284,
            "max" : [
                0.12000005692243576,
                0.12000000476837158,
                0.5611495971679688
            ],
            "min" : [
                -0.11999993771314621,
                -0.12000000476837158,
                -0.03693366050720215
            ],
            "type" : "VEC3"
        },
        {
            "bufferView" : 9,
            "componentType" : 5126,
            "count" : 284,
            "type" : "VEC3"
        },
        {
            "bufferView" : 10,
            "componentType" : 5126,
            "count" : 284,
            "type" : "VEC2"
        },
        {
            "bufferView" : 11,
            "componentType" : 5123,
            "count" : 474,
            "type" : "SCALAR"
        },
        {
            "bufferView" : 12,
            "componentType" : 5126,
            "count" : 310,
            "max" : [
                0.4999999403953552,
                0.5,
                0.333333283662796
            ],
            "min" : [
                -0.4999999403953552,
                0,
                -0.6666666269302368
            ],
            "type" : "VEC3"
        },
        {
            "bufferView" : 13,
            "componentType" : 5126,
            "count" : 310,
            "type" : "VEC3"
        },
        {
            "bufferView" : 14,
            "componentType" : 5126,
            "count" : 310,
            "type" : "VEC2"
        },
        {
            "bufferView" : 15,
            "componentType" : 5123,
            "count" : 480,
            "type" : "SCALAR"
        },
        {
            "bufferView" : 16,
            "componentType" : 5126,
            "count" : 508,
            "max" : [
                0.8333333134651184,
                1,
                1
            ],
            "min" : [
                -0.8333333134651184,
                0.25,
                -1
            ],
            "type" : "VEC3"
        },
        {
            "bufferView" : 17,
            "componentType" : 5126,
            "count" : 508,
            "type" : "VEC3"
        },
        {
            "bufferView" : 18,
            "componentType" : 5126,
            "count" : 508,
            "type" : "VEC2"
        },
        {
            "bufferView" : 19,
            "componentType" : 5123,
            "count" : 852,
            "type" : "SCALAR"
        }
    ],
    "bufferViews" : [
        {
            "buffer" : 0,
            "byteLength" : 576,
            "byteOffset" : 0
        },
        {
            "buffer" : 0,
            "byteLength" : 576,
            "byteOffset" : 576
        },
        {
            "buffer" : 0,
            "byteLength" : 384,
            "byteOffset" : 1152
        },
        {
            "buffer" : 0,
            "byteLength" : 144,
            "byteOffset" : 1536
        },
        {
            "buffer" : 0,
            "byteLength" : 4488,
            "byteOffset" : 1680
        },
        {
            "buffer" : 0,
            "byteLength" : 4488,
            "byteOffset" : 6168
        },
        {
            "buffer" : 0,
            "byteLength" : 2992,
            "byteOffset" : 10656
        },
        {
            "buffer" : 0,
            "byteLength" : 1332,
            "byteOffset" : 13648
        },
        {
            "buffer" : 0,
            "byteLength" : 3408,
            "byteOffset" : 14980
        },
        {
            "buffer" : 0,
            "byteLength" : 3408,
            "byteOffset" : 18388
        },
        {
            "buffer" : 0,
            "byteLength" : 2272,
            "byteOffset" : 21796
        },
        {
            "buffer" : 0,
            "byteLength" : 948,
            "byteOffset" : 24068
        },
        {
            "buffer" : 0,
            "byteLength" : 3720,
            "byteOffset" : 25016
        },
        {
            "buffer" : 0,
            "byteLength" : 3720,
            "byteOffset" : 28736
        },
        {
            "buffer" : 0,
            "byteLength" : 2480,
            "byteOffset" : 32456
        },
        {
            "buffer" : 0,
            "byteLength" : 960,
            "byteOffset" : 34936
        },
        {
            "buffer" : 0,
            "byteLength" : 6096,
            "byteOffset" : 35896
        },
        {
            "buffer" : 0,
            "byteLength" : 6096,
            "byteOffset" : 41992
        },
        {
            "buffer" : 0,
            "byteLength" : 4064,
            "byteOffset" : 48088
        },
        {
            "buffer" : 0,
            "byteLength" : 1704,
            "byteOffset" : 52152
        }
    ],
    "buffers" : [
        {
            "byteLength" : 53856,
            "uri" : "tank.bin"
        }
    ]
}
