{
    "asset" : {
        "generator" : "Khronos Blender glTF 2.0 I/O",
        "version" : "2.0"
    },
    "scene" : 0,
    "scenes" : [
        {
            "name" : "Scene",
            "nodes" : [
                3
            ]
        }
    ],
    "nodes" : [
        {
            "mesh" : 0,
            "name" : "TankTracks",
            "translation" : [
                0,
                0.25,
                0
            ]
        },
        {
            "mesh" : 1,
            "name" : "TurretGun",
            "translation" : [
                0,
                0.25000011920928955,
                0.1666666716337204
            ]
        },
        {
            "children" : [
                1
            ],
            "mesh" : 2,
            "name" : "Turret",
            "translation" : [
                0,
                1,
                0
            ]
        },
        {
            "children" : [
                0,
                2
            ],
            "mesh" : 3,
            "name" : "TankBase"
        }
    ],
    "materials" : [
        {
            "name" : "TankTracksMaterial",
            "pbrMetallicRoughness" : {
                "baseColorFactor" : [
                    0.18781538307666779,
                    0.10230356454849243,
                    0.0073455628007650375,
                    1
                ],
                "metallicFactor" : 0,
                "roughnessFactor" : 1
            }
        },
        {
            "name" : "TankDarkMaterial",
            "pbrMetallicRoughness" : {
                "baseColorFactor" : [
                    0.007511979900300503,
                    0.1190645694732666,
                    0,
                    1
                ],
                "metallicFactor" : 0,
                "roughnessFactor" : 1
            }
        },
        {
            "name" : "TankLightMaterial",
            "pbrMetallicRoughness" : {
                "baseColorFactor" : [
                    0.028850939124822617,
                    0.24762845039367676,
                    0,
                    1
                ],
                "metallicFactor" : 0,
                "roughnessFactor" : 1
            }
        },
        {
            "name" : "TurretGunRingYellow",
            "pbrMetallicRoughness" : {
                "baseColorFactor" : [
                    1,
                    1,
                    0.00017578122788108885,
                    1
                ],
                "metallicFactor" : 0,
                "roughnessFactor" : 1
            }
        },
        {
            "name" : "TurretGunRingRed",
            "pbrMetallicRoughness" : {
                "baseColorFactor" : [
                    1,
                    0,
                    0,
                    1
                ],
                "metallicFactor" : 0,
                "roughnessFactor" : 1
            }
        },
        {
            "name" : "TurretGunInner",
            "pbrMetallicRoughness" : {
                "baseColorFactor" : [
                    0,
                    0,
                    0,
                    1
                ],
                "metallicFactor" : 0,
                "roughnessFactor" : 1
            }
        },
        {
            "name" : "TankTeamColor",
            "pbrMetallicRoughness" : {
                "baseColorFactor" : [
                    1,
                    0,
                    1,
                    1
                ],
                "metallicFactor" : 0,
                "roughnessFactor" : 1
            }
        },
        {
            "name" : "TankTeamColorDark",
            "pbrMetallicRoughness" : {
                "baseColorFactor" : [
                    0.4563826024532318,
                    0,
                    0.4563826024532318,
                    1
                ],
                "metallicFactor" : 0,
                "roughnessFactor" : 1
            }
        }
    ],
    "meshes" : [
        {
            "name" : "TankTracksData.001",
            "primitives" : [
                {
                    "attributes" : {
                        "POSITION" : 0,
                        "NORMAL" : 1
                    },
                    "indices" : 2,
                    "material" : 0
                }
            ]
        },
        {
            "name" : "TurretGunData.001",
            "primitives" : [
                {
                    "attributes" : {
                        "POSITION" : 3,
                        "NORMAL" : 4
                    },
                    "indices" : 5,
                    "material" : 1
                },
                {
                    "attributes" : {
                        "POSITION" : 6,
                        "NORMAL" : 7
                    },
                    "indices" : 8,
                    "material" : 2
                },
                {
                    "attributes" : {
                        "POSITION" : 9,
                        "NORMAL" : 10
                    },
                    "indices" : 11,
                    "material" : 3
                },
                {
                    "attributes" : {
                        "POSITION" : 12,
                        "NORMAL" : 13
                    },
                    "indices" : 14,
                    "material" : 4
                },
                {
                    "attributes" : {
                        "POSITION" : 15,
                        "NORMAL" : 16
                    },
                    "indices" : 17,
                    "material" : 5
                }
            ]
        },
        {
            "name" : "TankTurretData.001",
            "primitives" : [
                {
                    "attributes" : {
                        "POSITION" : 18,
                        "NORMAL" : 19
                    },
                    "indices" : 20,
                    "material" : 2
                },
                {
                    "attributes" : {
                        "POSITION" : 21,
                        "NORMAL" : 22
                    },
                    "indices" : 23,
                    "material" : 1
                },
                {
                    "attributes" : {
                        "POSITION" : 24,
                        "NORMAL" : 25
                    },
                    "indices" : 26,
                    "material" : 6
                },
                {
                    "attributes" : {
                        "POSITION" : 27,
                        "NORMAL" : 28
                    },
                    "indices" : 29,
                    "material" : 7
                }
            ]
        },
        {
            "name" : "TankBaseData.001",
            "primitives" : [
                {
                    "attributes" : {
                        "POSITION" : 30,
                        "NORMAL" : 31
                    },
                    "indices" : 32,
                    "material" : 1
                },
                {
                    "attributes" : {
                        "POSITION" : 33,
                        "NORMAL" : 34
                    },
                    "indices" : 35,
                    "material" : 2
                }
            ]
        }
    ],
    "accessors" : [
        {
            "bufferView" : 0,
            "componentType" : 5126,
            "count" : 48,
            "max" : [
                0.8478837609291077,
                0.3804263472557068,
                0.9845698475837708
            ],
            "min" : [
                -0.8478837609291077,
                -0.25,
                -0.9742331504821777
            ],
            "type" : "VEC3"
        },
        {
            "bufferView" : 1,
            "componentType" : 5126,
            "count" : 48,
            "type" : "VEC3"
        },
        {
            "bufferView" : 2,
            "componentType" : 5123,
            "count" : 72,
            "type" : "SCALAR"
        },
        {
            "bufferView" : 3,
            "componentType" : 5126,
            "count" : 160,
            "max" : [
                0.12000005692243576,
                0.12000000476837158,
                0.23126697540283203
            ],
            "min" : [
                -0.11999993771314621,
                -0.12000000476837158,
                -0.03693366050720215
            ],
            "type" : "VEC3"
        },
        {
            "bufferView" : 4,
            "componentType" : 5126,
            "count" : 160,
            "type" : "VEC3"
        },
        {
            "bufferView" : 5,
            "componentType" : 5123,
            "count" : 282,
            "type" : "SCALAR"
        },
        {
            "bufferView" : 6,
            "componentType" : 5126,
            "count" : 128,
            "max" : [
                0.12000005692243576,
                0.12000000476837158,
                0.5611495971679688
            ],
            "min" : [
                -0.11999993771314621,
                -0.12000000476837158,
                0.23126697540283203
            ],
            "type" : "VEC3"
        },
        {
            "bufferView" : 7,
            "componentType" : 5126,
            "count" : 128,
            "type" : "VEC3"
        },
        {
            "bufferView" : 8,
            "componentType" : 5123,
            "count" : 192,
            "type" : "SCALAR"
        },
        {
            "bufferView" : 9,
            "componentType" : 5126,
            "count" : 128,
            "max" : [
                0.12000005692243576,
                0.12000000476837158,
                0.7490811347961426
            ],
            "min" : [
                -0.11999993771314621,
                -0.12000000476837158,
                0.5611495971679688
            ],
            "type" : "VEC3"
        },
        {
            "bufferView" : 10,
            "componentType" : 5126,
            "count" : 128,
            "type" : "VEC3"
        },
        {
            "bufferView" : 11,
            "componentType" : 5123,
            "count" : 192,
            "type" : "SCALAR"
        },
        {
            "bufferView" : 12,
            "componentType" : 5126,
            "count" : 216,
            "max" : [
                0.12000005692243576,
                0.12000000476837158,
                0.870266318321228
            ],
            "min" : [
                -0.11999993771314621,
                -0.12000000476837158,
                0.7490811347961426
            ],
            "type" : "VEC3"
        },
        {
            "bufferView" : 13,
            "componentType" : 5126,
            "count" : 216,
            "type" : "VEC3"
        },
        {
            "bufferView" : 14,
            "componentType" : 5123,
            "count" : 384,
            "type" : "SCALAR"
        },
        {
            "bufferView" : 15,
            "componentType" : 5126,
            "count" : 32,
            "max" : [
                0.07867526262998581,
                0.07867521047592163,
                0.870266318321228
            ],
            "min" : [
                -0.07867515087127686,
                -0.07867521047592163,
                0.870266318321228
            ],
            "type" : "VEC3"
        },
        {
            "bufferView" : 16,
            "componentType" : 5126,
            "count" : 32,
            "type" : "VEC3"
        },
        {
            "bufferView" : 17,
            "componentType" : 5123,
            "count" : 90,
            "type" : "SCALAR"
        },
        {
            "bufferView" : 18,
            "componentType" : 5126,
            "count" : 50,
            "max" : [
                0.4999999403953552,
                0.5,
                0.333333283662796
            ],
            "min" : [
                -0.4999999403953552,
                0,
                -0.6666666269302368
            ],
            "type" : "VEC3"
        },
        {
            "bufferView" : 19,
            "componentType" : 5126,
            "count" : 50,
            "type" : "VEC3"
        },
        {
            "bufferView" : 20,
            "componentType" : 5123,
            "count" : 120,
            "type" : "SCALAR"
        },
        {
            "bufferView" : 21,
            "componentType" : 5126,
            "count" : 116,
            "max" : [
                0.454487144947052,
                0.5,
                0.333333283662796
            ],
            "min" : [
                -0.454487144947052,
                0.2730768918991089,
                -0.6211538314819336
            ],
            "type" : "VEC3"
        },
        {
            "bufferView" : 22,
            "componentType" : 5126,
            "count" : 116,
            "type" : "VEC3"
        },
        {
            "bufferView" : 23,
            "componentType" : 5123,
            "count" : 192,
            "type" : "SCALAR"
        },
        {
            "bufferView" : 24,
            "componentType" : 5126,
            "count" : 20,
            "max" : [
                0.48816820979118347,
                0.2730769217014313,
                0.333333283662796
            ],
            "min" : [
                -0.48816820979118347,
                0.07099038362503052,
                -0.6548349261283875
            ],
            "type" : "VEC3"
        },
        {
            "bufferView" : 25,
            "componentType" : 5126,
            "count" : 20,
            "type" : "VEC3"
        },
        {
            "bufferView" : 26,
            "componentType" : 5123,
            "count" : 36,
            "type" : "SCALAR"
        },
        {
            "bufferView" : 27,
            "componentType" : 5126,
            "count" : 76,
            "max" : [
                0.4999999403953552,
                0.2730769217014313,
                0.333333283662796
            ],
            "min" : [
                -0.4999999403953552,
                0,
                -0.6666666269302368
            ],
            "type" : "VEC3"
        },
        {
            "bufferView" : 28,
            "componentType" : 5126,
            "count" : 76,
            "type" : "VEC3"
        },
        {
            "bufferView" : 29,
            "componentType" : 5123,
            "count" : 132,
            "type" : "SCALAR"
        },
        {
            "bufferView" : 30,
            "componentType" : 5126,
            "count" : 258,
            "max" : [
                0.8333333134651184,
                1,
                1
            ],
            "min" : [
                -0.8333333134651184,
                0.25,
                -1
            ],
            "type" : "VEC3"
        },
        {
            "bufferView" : 31,
            "componentType" : 5126,
            "count" : 258,
            "type" : "VEC3"
        },
        {
            "bufferView" : 32,
            "componentType" : 5123,
            "count" : 672,
            "type" : "SCALAR"
        },
        {
            "bufferView" : 33,
            "componentType" : 5126,
            "count" : 90,
            "max" : [
                0.8333333134651184,
                1,
                1
            ],
            "min" : [
                -0.8333333134651184,
                0.34019607305526733,
                -1
            ],
            "type" : "VEC3"
        },
        {
            "bufferView" : 34,
            "componentType" : 5126,
            "count" : 90,
            "type" : "VEC3"
        },
        {
            "bufferView" : 35,
            "componentType" : 5123,
            "count" : 180,
            "type" : "SCALAR"
        }
    ],
    "bufferViews" : [
        {
            "buffer" : 0,
            "byteLength" : 576,
            "byteOffset" : 0
        },
        {
            "buffer" : 0,
            "byteLength" : 576,
            "byteOffset" : 576
        },
        {
            "buffer" : 0,
            "byteLength" : 144,
            "byteOffset" : 1152
        },
        {
            "buffer" : 0,
            "byteLength" : 1920,
            "byteOffset" : 1296
        },
        {
            "buffer" : 0,
            "byteLength" : 1920,
            "byteOffset" : 3216
        },
        {
            "buffer" : 0,
            "byteLength" : 564,
            "byteOffset" : 5136
        },
        {
            "buffer" : 0,
            "byteLength" : 1536,
            "byteOffset" : 5700
        },
        {
            "buffer" : 0,
            "byteLength" : 1536,
            "byteOffset" : 7236
        },
        {
            "buffer" : 0,
            "byteLength" : 384,
            "byteOffset" : 8772
        },
        {
            "buffer" : 0,
            "byteLength" : 1536,
            "byteOffset" : 9156
        },
        {
            "buffer" : 0,
            "byteLength" : 1536,
            "byteOffset" : 10692
        },
        {
            "buffer" : 0,
            "byteLength" : 384,
            "byteOffset" : 12228
        },
        {
            "buffer" : 0,
            "byteLength" : 2592,
            "byteOffset" : 12612
        },
        {
            "buffer" : 0,
            "byteLength" : 2592,
            "byteOffset" : 15204
        },
        {
            "buffer" : 0,
            "byteLength" : 768,
            "byteOffset" : 17796
        },
        {
            "buffer" : 0,
            "byteLength" : 384,
            "byteOffset" : 18564
        },
        {
            "buffer" : 0,
            "byteLength" : 384,
            "byteOffset" : 18948
        },
        {
            "buffer" : 0,
            "byteLength" : 180,
            "byteOffset" : 19332
        },
        {
            "buffer" : 0,
            "byteLength" : 600,
            "byteOffset" : 19512
        },
        {
            "buffer" : 0,
            "byteLength" : 600,
            "byteOffset" : 20112
        },
        {
            "buffer" : 0,
            "byteLength" : 240,
            "byteOffset" : 20712
        },
        {
            "buffer" : 0,
            "byteLength" : 1392,
            "byteOffset" : 20952
        },
        {
            "buffer" : 0,
            "byteLength" : 1392,
            "byteOffset" : 22344
        },
        {
            "buffer" : 0,
            "byteLength" : 384,
            "byteOffset" : 23736
        },
        {
            "buffer" : 0,
            "byteLength" : 240,
            "byteOffset" : 24120
        },
        {
            "buffer" : 0,
            "byteLength" : 240,
            "byteOffset" : 24360
        },
        {
            "buffer" : 0,
            "byteLength" : 72,
            "byteOffset" : 24600
        },
        {
            "buffer" : 0,
            "byteLength" : 912,
            "byteOffset" : 24672
        },
        {
            "buffer" : 0,
            "byteLength" : 912,
            "byteOffset" : 25584
        },
        {
            "buffer" : 0,
            "byteLength" : 264,
            "byteOffset" : 26496
        },
        {
            "buffer" : 0,
            "byteLength" : 3096,
            "byteOffset" : 26760
        },
        {
            "buffer" : 0,
            "byteLength" : 3096,
            "byteOffset" : 29856
        },
        {
            "buffer" : 0,
            "byteLength" : 1344,
            "byteOffset" : 32952
        },
        {
            "buffer" : 0,
            "byteLength" : 1080,
            "byteOffset" : 34296
        },
        {
            "buffer" : 0,
            "byteLength" : 1080,
            "byteOffset" : 35376
        },
        {
            "buffer" : 0,
            "byteLength" : 360,
            "byteOffset" : 36456
        }
    ],
    "buffers" : [
        {
            "byteLength" : 36816,
            "uri" : "data:application/octet-stream;base64,"
        }
    ]
}
