{
    "asset" : {
        "generator" : "Khronos glTF Blender I/O v1.1.46",
        "version" : "2.0"
    },
    "scene" : 0,
    "scenes" : [
        {
            "name" : "Scene",
            "nodes" : [
                4
            ]
        }
    ],
    "nodes" : [
        {
            "mesh" : 0,
            "name" : "TankTracks",
            "translation" : [
                0,
                0,
                -0.25
            ]
        },
        {
            "mesh" : 1,
            "name" : "TurretGunMuzzle"
        },
        {
            "children" : [
                1
            ],
            "mesh" : 2,
            "name" : "TurretGun",
            "translation" : [
                0,
                0.1666666716337204,
                -0.25000011920928955
            ]
        },
        {
            "children" : [
                2
            ],
            "mesh" : 3,
            "name" : "Turret",
            "translation" : [
                0,
                0,
                -1
            ]
        },
        {
            "children" : [
                0,
                3
            ],
            "mesh" : 4,
            "name" : "TankBase",
            "rotation" : [
                0.7071068286895752,
                0,
                0,
                0.7071067094802856
            ]
        }
    ],
    "materials" : [
        {
            "emissiveFactor" : [
                0,
                0,
                0
            ],
            "name" : "TankOtherMaterial",
            "pbrMetallicRoughness" : {
                "baseColorTexture" : {
                    "index" : 0,
                    "texCoord" : 0
                },
                "metallicFactor" : 0,
                "roughnessFactor" : 0.5
            }
        },
        {
            "emissiveFactor" : [
                0,
                0,
                0
            ],
            "name" : "TankMaterial",
            "pbrMetallicRoughness" : {
                "baseColorTexture" : {
                    "index" : 1,
                    "texCoord" : 0
                },
                "metallicFactor" : 0,
                "roughnessFactor" : 0.5
            }
        }
    ],
    "meshes" : [
        {
            "name" : "TankTracksData.001",
            "primitives" : [
                {
                    "attributes" : {
                        "POSITION" : 0,
                        "NORMAL" : 1,
                        "TEXCOORD_0" : 2
                    },
                    "indices" : 3,
                    "material" : 0
                }
            ]
        },
        {
            "name" : "TurretGunData.001",
            "primitives" : [
                {
                    "attributes" : {
                        "POSITION" : 4,
                        "NORMAL" : 5,
                        "TEXCOORD_0" : 6
                    },
                    "indices" : 7,
                    "material" : 0
                }
            ]
        },
        {
            "name" : "TurretGunData.002",
            "primitives" : [
                {
                    "attributes" : {
                        "POSITION" : 8,
                        "NORMAL" : 9,
                        "TEXCOORD_0" : 10
                    },
                    "indices" : 11,
                    "material" : 1
                }
            ]
        },
        {
            "name" : "TankTurretData.001",
            "primitives" : [
                {
                    "attributes" : {
                        "POSITION" : 12,
                        "NORMAL" : 13,
                        "TEXCOORD_0" : 14
                    },
                    "indices" : 15,
                    "material" : 1
                }
            ]
        },
        {
            "name" : "TankBaseData.001",
            "primitives" : [
                {
                    "attributes" : {
                        "POSITION" : 16,
                        "NORMAL" : 17,
                        "TEXCOORD_0" : 18
                    },
                    "indices" : 19,
                    "material" : 1
                }
            ]
        }
    ],
    "textures" : [
        {
            "source" : 0
        },
        {
            "source" : 1
        }
    ],
    "images" : [
        {
            "mimeType" : "image/png",
            "name" : "tank_other_texture",
            "uri" : "tank_other_texture.png"
        },
        {
            "mimeType" : "image/png",
            "name" : "tank_texture",
            "uri" : "tank_texture.png"
        }
    ],
    "accessors" : [
        {
            "bufferView" : 0,
            "componentType" : 5126,
            "count" : 60,
            "max" : [
                0.8478837609291077,
                0.9845698475837708,
                0.25
            ],
            "min" : [
                -0.8478837609291077,
                -0.9742331504821777,
                -0.3804263472557068
            ],
            "type" : "VEC3"
        },
        {
            "bufferView" : 1,
            "componentType" : 5126,
            "count" : 60,
            "type" : "VEC3"
        },
        {
            "bufferView" : 2,
            "componentType" : 5126,
            "count" : 60,
            "type" : "VEC2"
        },
        {
            "bufferView" : 3,
            "componentType" : 5123,
            "count" : 72,
            "type" : "SCALAR"
        },
        {
            "bufferView" : 4,
            "componentType" : 5126,
            "count" : 594,
            "max" : [
                0.12000005692243576,
                0.870266318321228,
                0.12000000476837158
            ],
            "min" : [
                -0.11999993771314621,
                0.5611495971679688,
                -0.12000000476837158
            ],
            "type" : "VEC3"
        },
        {
            "bufferView" : 5,
            "componentType" : 5126,
            "count" : 594,
            "type" : "VEC3"
        },
        {
            "bufferView" : 6,
            "componentType" : 5126,
            "count" : 594,
            "type" : "VEC2"
        },
        {
            "bufferView" : 7,
            "componentType" : 5123,
            "count" : 666,
            "type" : "SCALAR"
        },
        {
            "bufferView" : 8,
            "componentType" : 5126,
            "count" : 410,
            "max" : [
                0.12000005692243576,
                0.5611495971679688,
                0.12000000476837158
            ],
            "min" : [
                -0.11999993771314621,
                -0.03693366050720215,
                -0.12000000476837158
            ],
            "type" : "VEC3"
        },
        {
            "bufferView" : 9,
            "componentType" : 5126,
            "count" : 410,
            "type" : "VEC3"
        },
        {
            "bufferView" : 10,
            "componentType" : 5126,
            "count" : 410,
            "type" : "VEC2"
        },
        {
            "bufferView" : 11,
            "componentType" : 5123,
            "count" : 474,
            "type" : "SCALAR"
        },
        {
            "bufferView" : 12,
            "componentType" : 5126,
            "count" : 409,
            "max" : [
                0.4999999403953552,
                0.333333283662796,
                0
            ],
            "min" : [
                -0.4999999403953552,
                -0.6666666269302368,
                -0.5
            ],
            "type" : "VEC3"
        },
        {
            "bufferView" : 13,
            "componentType" : 5126,
            "count" : 409,
            "type" : "VEC3"
        },
        {
            "bufferView" : 14,
            "componentType" : 5126,
            "count" : 409,
            "type" : "VEC2"
        },
        {
            "bufferView" : 15,
            "componentType" : 5123,
            "count" : 480,
            "type" : "SCALAR"
        },
        {
            "bufferView" : 16,
            "componentType" : 5126,
            "count" : 625,
            "max" : [
                0.8333333134651184,
                1,
                -0.25
            ],
            "min" : [
                -0.8333333134651184,
                -1,
                -1
            ],
            "type" : "VEC3"
        },
        {
            "bufferView" : 17,
            "componentType" : 5126,
            "count" : 625,
            "type" : "VEC3"
        },
        {
            "bufferView" : 18,
            "componentType" : 5126,
            "count" : 625,
            "type" : "VEC2"
        },
        {
            "bufferView" : 19,
            "componentType" : 5123,
            "count" : 852,
            "type" : "SCALAR"
        }
    ],
    "bufferViews" : [
        {
            "buffer" : 0,
            "byteLength" : 720,
            "byteOffset" : 0
        },
        {
            "buffer" : 0,
            "byteLength" : 720,
            "byteOffset" : 720
        },
        {
            "buffer" : 0,
            "byteLength" : 480,
            "byteOffset" : 1440
        },
        {
            "buffer" : 0,
            "byteLength" : 144,
            "byteOffset" : 1920
        },
        {
            "buffer" : 0,
            "byteLength" : 7128,
            "byteOffset" : 2064
        },
        {
            "buffer" : 0,
            "byteLength" : 7128,
            "byteOffset" : 9192
        },
        {
            "buffer" : 0,
            "byteLength" : 4752,
            "byteOffset" : 16320
        },
        {
            "buffer" : 0,
            "byteLength" : 1332,
            "byteOffset" : 21072
        },
        {
            "buffer" : 0,
            "byteLength" : 4920,
            "byteOffset" : 22404
        },
        {
            "buffer" : 0,
            "byteLength" : 4920,
            "byteOffset" : 27324
        },
        {
            "buffer" : 0,
            "byteLength" : 3280,
            "byteOffset" : 32244
        },
        {
            "buffer" : 0,
            "byteLength" : 948,
            "byteOffset" : 35524
        },
        {
            "buffer" : 0,
            "byteLength" : 4908,
            "byteOffset" : 36472
        },
        {
            "buffer" : 0,
            "byteLength" : 4908,
            "byteOffset" : 41380
        },
        {
            "buffer" : 0,
            "byteLength" : 3272,
            "byteOffset" : 46288
        },
        {
            "buffer" : 0,
            "byteLength" : 960,
            "byteOffset" : 49560
        },
        {
            "buffer" : 0,
            "byteLength" : 7500,
            "byteOffset" : 50520
        },
        {
            "buffer" : 0,
            "byteLength" : 7500,
            "byteOffset" : 58020
        },
        {
            "buffer" : 0,
            "byteLength" : 5000,
            "byteOffset" : 65520
        },
        {
            "buffer" : 0,
            "byteLength" : 1704,
            "byteOffset" : 70520
        }
    ],
    "buffers" : [
        {
            "byteLength" : 72224,
            "uri" : "tank.bin"
        }
    ]
}
